<svg t="1618901016052" class="icon" viewBox="0 0 1028 1024" version="1.1" xmlns="http://www.w3.org/2000/svg" p-id="1173" width="200" height="200"><path d="M972.8 686.08 972.8 686.08l0-208.213333c-13.653333 3.413333-23.893333 6.826667-37.546667 6.826667-10.24 0-20.48 0-30.72-3.413333l0 204.8-81.92 0 0-129.706667c0-13.653333-10.24-23.893333-23.893333-23.893333l-75.093333 0c-13.653333 0-23.893333 10.24-23.893333 23.893333l0 129.706667-102.4 0 0-20.48c0-13.653333-10.24-23.893333-23.893333-23.893333l-85.333333 0c-13.653333 0-23.893333 10.24-23.893333 23.893333l0 20.48L341.333333 686.08l0-58.026667c0-13.653333-10.24-23.893333-23.893333-23.893333L191.146667 604.16c-13.653333 0-23.893333 10.24-23.893333 23.893333l0 58.026667L119.466667 686.08 119.466667 477.866667c-10.24 3.413333-20.48 6.826667-34.133333 6.826667-10.24 0-23.893333-3.413333-34.133333-6.826667l0 208.213333 0 0c-27.306667 0-51.2 23.893333-51.2 51.2l0 238.933333C0 1000.106667 23.893333 1024 51.2 1024l925.013333 0c27.306667 0 51.2-23.893333 51.2-51.2l0-238.933333C1024 709.973333 1000.106667 686.08 972.8 686.08z" p-id="1174" fill="#d81e06"></path><path d="M228.693333 232.106667C221.866667 232.106667 211.626667 238.933333 211.626667 249.173333l0 116.053333c0 47.786667 37.546667 85.333333 85.333333 85.333333 47.786667 0 85.333333-37.546667 85.333333-85.333333L382.293333 249.173333c0-10.24-6.826667-17.066667-17.066667-17.066667L228.693333 232.106667z" p-id="1175" fill="#d81e06"></path><path d="M440.32 232.106667c-10.24 0-17.066667 6.826667-17.066667 17.066667l0 116.053333c0 47.786667 37.546667 85.333333 85.333333 85.333333 47.786667 0 85.333333-37.546667 85.333333-85.333333L593.92 249.173333c0-10.24-6.826667-17.066667-17.066667-17.066667L440.32 232.106667z" p-id="1176" fill="#d81e06"></path><path d="M655.36 232.106667c-10.24 0-17.066667 6.826667-17.066667 17.066667l0 116.053333c0 47.786667 37.546667 85.333333 85.333333 85.333333s85.333333-37.546667 85.333333-85.333333L808.96 249.173333c0-10.24-6.826667-17.066667-17.066667-17.066667L655.36 232.106667z" p-id="1177" fill="#d81e06"></path><path d="M17.066667 191.146667l993.28 0c6.826667 0 13.653333-3.413333 13.653333-10.24s0-13.653333-6.826667-17.066667l-211.626667-157.013333C805.546667 3.413333 802.133333 0 798.72 0L225.28 0c-3.413333 0-6.826667 0-10.24 3.413333L6.826667 160.426667C0 167.253333 0 174.08 0 180.906667 3.413333 187.733333 10.24 191.146667 17.066667 191.146667z" p-id="1178" fill="#d81e06"></path><path d="M85.333333 450.56c47.786667 0 85.333333-37.546667 85.333333-85.333333L170.666667 249.173333c0-10.24-6.826667-17.066667-17.066667-17.066667l-136.533333 0C6.826667 232.106667 0 238.933333 0 249.173333l0 116.053333C0 413.013333 37.546667 450.56 85.333333 450.56z" p-id="1179" fill="#d81e06"></path><path d="M1003.52 232.106667l-136.533333 0c-10.24 0-17.066667 6.826667-17.066667 17.066667l0 116.053333c0 47.786667 37.546667 85.333333 85.333333 85.333333 47.786667 0 85.333333-37.546667 85.333333-85.333333L1020.586667 249.173333C1020.586667 238.933333 1010.346667 232.106667 1003.52 232.106667z" p-id="1180" fill="#d81e06"></path></svg>